<?xml version="1.0" encoding="UTF-8"?>
<svg width="87px" height="108px" viewBox="0 0 87 108" version="1.1" xmlns="http://www.w3.org/2000/svg" xmlns:xlink="http://www.w3.org/1999/xlink">
    <!-- Generator: Sketch 43.2 (39069) - http://www.bohemiancoding.com/sketch -->
    <title>hdiw-usp-2</title>
    <desc>Created with Sketch.</desc>
    <defs></defs>
    <g id="Page-1" stroke="none" stroke-width="1" fill="none" fill-rule="evenodd">
        <g id="Illustrations" transform="translate(-257.000000, -455.000000)">
            <g id="hdiw-usp-2" transform="translate(257.000000, 457.000000)">
                <g id="easy">
                    <g id="Layer_1">
                        <g id="Group">
                            <polygon id="XMLID_1304_-Copy" stroke="#00CE5C" stroke-width="3.375" fill-opacity="0.2" fill="#00CE5C" stroke-linejoin="round" transform="translate(59.617843, 31.820252) scale(1, -1) translate(-59.617843, -31.820252) " points="85.3395822 42.2149718 33.8961039 21.4255319 40.860554 42.2149718"></polygon>
                            <polygon id="XMLID_1304_" stroke="#00B6F0" stroke-width="3.375" fill-opacity="0.2" fill="#00B6F0" stroke-linejoin="round" points="85.3395822 20.7894399 33.8961039 0 40.860554 20.7894399"></polygon>
                            <path d="M23.1446701,105.766699 C23.6786854,105.766699 24.1904501,105.54577 24.568711,105.17019 C24.9469719,104.79461 25.1694783,104.286473 25.1694783,103.756243 C25.1694783,103.226013 24.9469719,102.717875 24.568711,102.342296 C24.1904501,101.966716 23.6786854,101.745787 23.1446701,101.745787 C22.6106547,101.745787 22.09889,101.966716 21.7206292,102.342296 C21.3423683,102.717875 21.1198619,103.226013 21.1198619,103.756243 C21.1198619,104.286473 21.3423683,104.79461 21.7206292,105.17019 C22.09889,105.567862 22.6106547,105.766699 23.1446701,105.766699 L23.1446701,105.766699 Z" id="Shape" fill-opacity="0.6" fill="#fff"></path>
                            <path d="M78.3930077,99.9783531 C78.9047724,99.9783531 79.3942864,99.8016097 79.794798,99.42603 C80.595821,98.6527778 80.6180716,97.3934812 79.8392992,96.598136 C79.0605269,95.8027908 77.7922404,95.7806979 76.9912174,96.5318572 C76.1901944,97.3051095 76.1679437,98.5644061 76.9244655,99.3597513 C77.324977,99.7574239 77.8589923,99.9783531 78.3930077,99.9783531 L78.3930077,99.9783531 Z" id="Shape" fill-opacity="0.6" fill="#fff"></path>
                            <path d="M81.6861023,94.1237287 C81.9753606,94.2783792 82.2868696,94.3446579 82.5983785,94.3446579 C83.3326496,94.3446579 84.0446701,93.9469853 84.4006803,93.2400118 C84.912445,92.2458303 84.5119335,91.0528125 83.5106547,90.5446753 C82.509376,90.0365381 81.3078414,90.4342107 80.7960767,91.4283922 C80.284312,92.4225737 80.6848235,93.6155915 81.6861023,94.1237287 L81.6861023,94.1237287 Z" id="Shape" fill-opacity="0.6" fill="#fff"></path>
                            <path d="M82.8208849,73.8203331 C83.7776624,73.2459172 84.0669207,72.0087135 83.4884041,71.0808108 C82.9098875,70.1308151 81.6638517,69.8436071 80.7070742,70.4180231 C79.7502967,70.9924391 79.4610384,72.2296427 80.039555,73.1796384 C80.4178159,73.7982402 81.085335,74.129634 81.7528542,74.129634 C82.1311151,74.1075411 82.4871253,74.0191694 82.8208849,73.8203331 L82.8208849,73.8203331 Z" id="Shape" fill-opacity="0.6" fill="#fff"></path>
                            <path d="M82.3981228,79.0342628 C82.5983785,79.9842584 83.4439028,80.6249532 84.356179,80.6249532 C84.4896829,80.6249532 84.6454373,80.6028603 84.7789412,80.5807673 C85.8692225,80.3598381 86.5589923,79.2993779 86.3364859,78.2168247 C86.1139795,77.1342715 85.0459488,76.4493909 83.9556675,76.6703201 C82.8653862,76.8912493 82.1756164,77.9517096 82.3981228,79.0342628 L82.3981228,79.0342628 Z" id="Shape" fill-opacity="0.6" fill="#fff"></path>
                            <path d="M78.682266,68.0982663 C79.3942864,67.2366423 79.2607826,65.9773457 78.3930077,65.2703722 C77.5252327,64.5633987 76.2569463,64.6959562 75.5449258,65.5575802 C74.8329054,66.4192042 74.9664092,67.6785007 75.8341841,68.3854743 C76.212445,68.6947752 76.6574578,68.8273327 77.1024706,68.8273327 C77.7032379,68.8273327 78.2817545,68.5843106 78.682266,68.0982663 L78.682266,68.0982663 Z" id="Shape" fill-opacity="0.6" fill="#fff"></path>
                            <path d="M0.18201023,44.6797686 C0.337764706,45.6739502 1.20553964,46.4030166 2.18456777,46.4030166 C2.27357033,46.4030166 2.38482353,46.4030166 2.47382609,46.3809237 C3.58635806,46.2262732 4.3428798,45.2099988 4.18712532,44.1053527 C4.03137084,43.0007066 3.00784143,42.2495472 1.89530946,42.4041977 C0.782777494,42.5588481 0.0262557545,43.5751225 0.18201023,44.6797686 L0.18201023,44.6797686 Z" id="Shape" fill-opacity="0.6" fill="#fff"></path>
                            <path d="M5.83367263,29.0821655 C4.87689514,28.5298425 3.63085934,28.8391434 3.07459335,29.789139 C2.51832737,30.7391347 2.82983632,31.9763383 3.78661381,32.5286614 C4.09812276,32.7054048 4.45413299,32.7937765 4.81014322,32.7937765 C5.49991304,32.7937765 6.16743223,32.4402897 6.54569309,31.799595 C7.12420972,30.8716922 6.81270077,29.6344886 5.83367263,29.0821655 L5.83367263,29.0821655 Z" id="Shape" fill-opacity="0.6" fill="#fff"></path>
                            <path d="M8.68175448,58.5983097 C9.21576982,58.5983097 9.77203581,58.3773805 10.1502967,57.9576149 C10.9068184,57.1401768 10.8623171,55.8808802 10.0390435,55.1297209 C9.21576982,54.3785615 7.94748338,54.4227474 7.19096164,55.2401855 C6.4344399,56.0576236 6.47894118,57.3169202 7.30221483,58.0680795 C7.70272634,58.4215663 8.19224041,58.5983097 8.68175448,58.5983097 L8.68175448,58.5983097 Z" id="Shape" fill-opacity="0.6" fill="#fff"></path>
                            <path d="M15.4014476,58.5983097 C14.3779182,58.1564512 13.1986343,58.6204026 12.7536215,59.636677 C12.3086087,60.6529515 12.7758721,61.8238763 13.7994015,62.2657348 C14.0664092,62.3761994 14.3334169,62.4203852 14.6004246,62.4203852 C15.3791969,62.4203852 16.113468,61.9785268 16.4472276,61.2052745 C16.8922404,60.211093 16.424977,59.0401681 15.4014476,58.5983097 L15.4014476,58.5983097 Z" id="Shape" fill-opacity="0.6" fill="#fff"></path>
                            <path d="M10.9068184,24.1554439 C10.194798,23.3159128 8.90426087,23.2054482 8.05873657,23.9345146 C7.21321228,24.6414881 7.10195908,25.9228776 7.83623018,26.7624087 C8.23674169,27.2263601 8.81525831,27.4693822 9.3715243,27.4693822 C9.83878772,27.4693822 10.2838005,27.3147317 10.684312,26.9833379 C11.5075857,26.2542715 11.6188389,24.9949749 10.9068184,24.1554439 L10.9068184,24.1554439 Z" id="Shape" fill-opacity="0.6" fill="#fff"></path>
                            <path d="M1.93981074,39.3332815 C2.07331458,39.3553744 2.20681841,39.3774673 2.31807161,39.3774673 C3.25259847,39.3774673 4.1203734,38.7146796 4.29837852,37.7425911 C4.49863427,36.6600379 3.78661381,35.5995776 2.69633248,35.4007413 C1.60605115,35.201905 0.53802046,35.9088785 0.337764706,36.9914317 L0.337764706,36.9914317 C0.137508951,38.0739849 0.849529412,39.1344452 1.93981074,39.3332815 L1.93981074,39.3332815 Z" id="Shape" fill-opacity="0.6" fill="#fff"></path>
                            <path d="M4.38738107,53.0529862 C4.69889003,53.0529862 5.03264962,52.9867074 5.32190793,52.832057 C6.30093606,52.3239198 6.67919693,51.108809 6.16743223,50.1367205 C5.65566752,49.1646319 4.43188235,48.7890522 3.45285422,49.2971894 C2.47382609,49.8053266 2.09556522,51.0204373 2.60732992,51.9925259 C2.96334015,52.6553136 3.65310997,53.0529862 4.38738107,53.0529862 L4.38738107,53.0529862 Z" id="Shape" fill-opacity="0.6" fill="#fff"></path>
                            <path d="M86.6702455,85.8830687 C86.8037494,84.7784226 86.024977,83.7842411 84.912445,83.6516835 C83.799913,83.519126 82.7986343,84.2923783 82.6651304,85.3749315 C82.5316266,86.4795776 83.310399,87.4737591 84.4006803,87.6063166 C84.4896829,87.6284096 84.5786854,87.6284096 84.667688,87.6284096 C85.6689668,87.6284096 86.5367417,86.8993431 86.6702455,85.8830687 L86.6702455,85.8830687 Z" id="Shape" fill-opacity="0.6" fill="#fff"></path>
                            <path d="M35.6495294,60.1448142 C34.5369974,60.1448142 33.6247212,61.0285311 33.6247212,62.1552702 C33.6247212,63.2599163 34.5369974,64.1657261 35.6495294,64.1657261 C36.7620614,64.1657261 37.6743376,63.2599163 37.6743376,62.1552702 C37.652087,61.0285311 36.7620614,60.1448142 35.6495294,60.1448142 L35.6495294,60.1448142 Z" id="Shape" fill-opacity="0.6" fill="#fff"></path>
                            <path d="M56.6096317,103.778336 C56.6096317,104.882982 57.4996573,105.788792 58.6344399,105.788792 C59.7469719,105.788792 60.6592481,104.882982 60.6592481,103.778336 C60.6592481,102.67369 59.7469719,101.76788 58.6344399,101.76788 C57.5219079,101.76788 56.6096317,102.67369 56.6096317,103.778336 L56.6096317,103.778336 Z" id="Shape" fill-opacity="0.6" fill="#fff"></path>
                            <path d="M35.3157698,103.778336 C35.3157698,104.882982 36.2057954,105.788792 37.340578,105.788792 C38.45311,105.788792 39.3653862,104.882982 39.3653862,103.778336 C39.3653862,102.67369 38.45311,101.76788 37.340578,101.76788 C36.228046,101.76788 35.3157698,102.67369 35.3157698,103.778336 L35.3157698,103.778336 Z" id="Shape" fill-opacity="0.6" fill="#fff"></path>
                            <path d="M56.9211407,60.1448142 C55.8086087,60.1448142 54.8963325,61.0285311 54.8963325,62.1552702 C54.8963325,63.2599163 55.8086087,64.1657261 56.9211407,64.1657261 C58.0336726,64.1657261 58.9459488,63.2599163 58.9459488,62.1552702 C58.9459488,61.0285311 58.0559233,60.1448142 56.9211407,60.1448142 L56.9211407,60.1448142 Z" id="Shape" fill-opacity="0.6" fill="#fff"></path>
                            <path d="M42.7474834,60.1448142 C41.6349514,60.1448142 40.7226752,61.0285311 40.7226752,62.1552702 C40.7226752,63.2599163 41.6127008,64.1657261 42.7474834,64.1657261 C43.8600153,64.1657261 44.7722916,63.2599163 44.7722916,62.1552702 C44.7500409,61.0285311 43.8600153,60.1448142 42.7474834,60.1448142 L42.7474834,60.1448142 Z" id="Shape" fill-opacity="0.6" fill="#fff"></path>
                            <path d="M28.2400665,103.778336 C28.2400665,104.882982 29.1300921,105.788792 30.2648747,105.788792 C31.3774066,105.788792 32.2896829,104.882982 32.2896829,103.778336 C32.2896829,102.67369 31.3774066,101.76788 30.2648747,101.76788 C29.1300921,101.76788 28.2400665,102.67369 28.2400665,103.778336 L28.2400665,103.778336 Z" id="Shape" fill-opacity="0.6" fill="#fff"></path>
                            <path d="M42.4137238,103.778336 C42.4137238,104.882982 43.326,105.788792 44.438532,105.788792 C45.5510639,105.788792 46.4633402,104.882982 46.4633402,103.778336 C46.4633402,102.67369 45.5733146,101.76788 44.438532,101.76788 C43.326,101.76788 42.4137238,102.67369 42.4137238,103.778336 L42.4137238,103.778336 Z" id="Shape" fill-opacity="0.6" fill="#fff"></path>
                            <path d="M49.5116777,103.778336 C49.5116777,104.882982 50.4017033,105.788792 51.5364859,105.788792 C52.6490179,105.788792 53.5390435,104.882982 53.5390435,103.778336 C53.5390435,102.67369 52.6490179,101.76788 51.5364859,101.76788 C50.423954,101.76788 49.5116777,102.67369 49.5116777,103.778336 L49.5116777,103.778336 Z" id="Shape" fill-opacity="0.6" fill="#fff"></path>
                            <path d="M49.8454373,60.1448142 C48.7329054,60.1448142 47.8206292,61.0285311 47.8206292,62.1552702 C47.8206292,63.2599163 48.7106547,64.1657261 49.8454373,64.1657261 C50.9579693,64.1657261 51.8702455,63.2599163 51.8702455,62.1552702 C51.8479949,61.0285311 50.9579693,60.1448142 49.8454373,60.1448142 L49.8454373,60.1448142 Z" id="Shape" fill-opacity="0.6" fill="#fff"></path>
                            <path d="M26.5267673,62.1331772 C26.5267673,63.2378234 27.4390435,64.1436332 28.5515754,64.1436332 C29.6641074,64.1436332 30.5763836,63.2378234 30.5763836,62.1331772 C30.5763836,61.0285311 29.6863581,60.1227213 28.5515754,60.1227213 C27.4390435,60.1448142 26.5267673,61.0285311 26.5267673,62.1331772 L26.5267673,62.1331772 Z" id="Shape" fill-opacity="0.6" fill="#fff"></path>
                            <path d="M24.3684552,20.4659258 C24.3462046,19.3612797 23.4116777,18.4775628 22.2991458,18.5217487 C21.1866138,18.5438416 20.3188389,19.4717443 20.3410895,20.5763904 C20.3633402,21.6810366 21.297867,22.5426605 22.410399,22.5205676 C23.5229309,22.4763818 24.4129565,21.5705719 24.3684552,20.4659258 L24.3684552,20.4659258 Z" id="Shape" fill-opacity="0.6" fill="#fff"></path>
                            <path d="M19.4510639,61.9564339 C19.384312,63.06108 20.2075857,64.0110756 21.3201176,64.0994473 L21.4536215,64.0994473 C22.4994015,64.0994473 23.3894271,63.3041021 23.456179,62.2436419 C23.5229309,61.1389957 22.6996573,60.1890001 21.5871253,60.1006284 C20.4745934,60.0122567 19.5178159,60.8517878 19.4510639,61.9564339 L19.4510639,61.9564339 Z" id="Shape" fill-opacity="0.6" fill="#fff"></path>
                            <path d="M17.3150026,21.1508064 C16.914491,20.1124391 15.7574578,19.6043019 14.7116777,20.0019745 C13.6658977,20.3996471 13.154133,21.548479 13.5546445,22.5868464 C13.8661535,23.3821916 14.6226752,23.8682359 15.4459488,23.8682359 C15.6907059,23.8682359 15.9354629,23.82405 16.1579693,23.7356783 C17.2037494,23.3380057 17.7155141,22.1891738 17.3150026,21.1508064 L17.3150026,21.1508064 Z" id="Shape" fill-opacity="0.6" fill="#fff"></path>
                            <path d="M72.8748491,64.0552615 C73.25311,63.0168941 72.7190946,61.8680622 71.6510639,61.4924825 L71.6510639,61.4924825 C70.6052839,61.1169028 69.4482506,61.647133 69.0699898,62.6855003 C68.6917289,63.7238677 69.2257442,64.8726996 70.2937749,65.2482793 C70.5162813,65.336651 70.7610384,65.3587439 70.9835448,65.3587439 C71.8068184,65.3808368 72.5855908,64.8726996 72.8748491,64.0552615 L72.8748491,64.0552615 Z" id="Shape" fill-opacity="0.6" fill="#fff"></path>
                            <path d="M64.0413453,60.1448142 C62.9288133,60.1448142 62.0165371,61.0285311 62.0165371,62.1331772 C62.0165371,63.2378234 62.9065627,64.1436332 64.0190946,64.1436332 L64.0413453,64.1436332 C65.1538772,64.1436332 66.0439028,63.2599163 66.0661535,62.1552702 C66.0439028,61.0506241 65.1538772,60.1448142 64.0413453,60.1448142 L64.0413453,60.1448142 Z" id="Shape" fill-opacity="0.6" fill="#fff"></path>
                            <path d="M72.5410895,103.910893 C72.8303478,103.910893 73.0973555,103.844615 73.3866138,103.73415 C74.4101432,103.270199 74.855156,102.077181 74.3878926,101.082999 C73.9206292,100.066725 72.7413453,99.6248663 71.7178159,100.088818 C70.6942864,100.552769 70.2492737,101.745787 70.7165371,102.739968 C71.0502967,103.469035 71.7845678,103.910893 72.5410895,103.910893 L72.5410895,103.910893 Z" id="Shape" fill-opacity="0.6" fill="#fff"></path>
                            <path d="M63.7075857,103.866707 C63.7965882,104.905075 64.6866138,105.70042 65.7101432,105.70042 L65.8881483,105.70042 C67.0006803,105.612048 67.823954,104.63996 67.7127008,103.535314 C67.6236982,102.430667 66.6446701,101.613229 65.5321381,101.723694 L65.5321381,101.723694 C64.4418568,101.789973 63.6185831,102.762061 63.7075857,103.866707 L63.7075857,103.866707 Z" id="Shape" fill-opacity="0.6" fill="#fff"></path>
                            <path d="M30.9768951,21.9240587 C31.355156,21.548479 31.5554118,21.0403418 31.5554118,20.5101117 C31.5554118,19.9798815 31.3329054,19.4717443 30.9768951,19.0961647 C30.5986343,18.720585 30.0868696,18.4996558 29.5528542,18.4996558 C29.0188389,18.4996558 28.5070742,18.720585 28.1288133,19.0961647 C27.7505524,19.4717443 27.528046,19.9798815 27.528046,20.5101117 C27.528046,21.0403418 27.7505524,21.548479 28.1288133,21.9240587 C28.5070742,22.2996384 29.0188389,22.5205676 29.5528542,22.5205676 C30.0868696,22.4984747 30.5986343,22.2996384 30.9768951,21.9240587 L30.9768951,21.9240587 Z" id="Shape" fill-opacity="0.6" fill="#fff"></path>
                        </g>
                    </g>
                </g>
            </g>
        </g>
    </g>
</svg>
